HIERARCHY
ROOT Hips
{
	OFFSET 0.000000 0.000000 0.000000
	CHANNELS 6 Xposition Yposition Zposition Zrotation Yrotation Xrotation 
	JOINT LHipJoint
	{
		OFFSET 0.000000 0.000000 0.000000
		CHANNELS 3 Zrotation Yrotation Xrotation
		JOINT LeftUpLeg
		{
			OFFSET 1.363060 -1.794630 0.839290
			CHANNELS 3 Zrotation Yrotation Xrotation
			JOINT LeftLeg
			{
				OFFSET 2.448110 -6.726130 0.000000
				CHANNELS 3 Zrotation Yrotation Xrotation
				JOINT LeftFoot
				{
					OFFSET 2.562200 -7.039590 0.000000
					CHANNELS 3 Zrotation Yrotation Xrotation
					JOINT LeftToeBase
					{
						OFFSET 0.157640 -0.433110 2.322550
						CHANNELS 3 Zrotation Yrotation Xrotation
						End Site
						{
							OFFSET 0.000000 0.000000 0.000000
						}
					}
				}
			}
		}
	}
	JOINT RHipJoint
	{
		OFFSET 0.000000 0.000000 0.000000
		CHANNELS 3 Zrotation Yrotation Xrotation
		JOINT RightUpLeg
		{
			OFFSET -1.305520 -1.794630 0.839290
			CHANNELS 3 Zrotation Yrotation Xrotation
			JOINT RightLeg
			{
				OFFSET -2.542530 -6.985550 0.000000
				CHANNELS 3 Zrotation Yrotation Xrotation
				JOINT RightFoot
				{
					OFFSET -2.568260 -7.056230 0.000000
					CHANNELS 3 Zrotation Yrotation Xrotation
					JOINT RightToeBase
					{
						OFFSET -0.164730 -0.452590 2.363150
						CHANNELS 3 Zrotation Yrotation Xrotation
						End Site
						{
							OFFSET 0.000000 0.000000 0.000000
						}
					}
				}
			}
		}
	}
}
MOTION
Frames: 33
Frame Time: 0.008333
2.686416 17.036860 0.997731 -153.416426 -80.277925 164.642448 -10.426551 -0.232783 4.582522 -0.687910 -3.456454 -43.565194 -0.050706 1.222955 37.350342 2.760771 14.352445 -5.589712 1.033000 -0.000000 -26.685700 7.075121 -2.263985 3.802814 20.644756 4.603446 -0.830834 4.345499 2.613830 -3.083630 0.004170 4.124349 -11.569169 -179.993500 0.000000 -14.788299
2.547003 17.016508 0.989354 -153.003979 -80.493991 164.241175 -10.382813 -0.269623 4.668644 -0.911681 -3.460662 -44.027820 -0.129147 1.096162 35.051504 2.577556 13.475760 -4.053093 1.369700 0.000000 -28.054899 7.081482 -2.307840 3.661990 20.624392 4.209265 -0.241325 4.336091 2.616484 -3.097441 -0.008959 4.284076 -12.021701 -179.996200 -0.000000 -15.281900
2.406417 16.994779 0.981643 -152.509896 -80.731981 163.734688 -10.348321 -0.288449 4.739760 -1.208336 -3.402991 -44.408666 -0.228937 0.971281 32.663079 2.363800 12.480309 -2.436745 1.659000 -0.000000 -29.510800 7.089700 -2.355744 3.512620 20.600820 3.769005 0.368716 4.327571 2.615594 -3.099954 -0.019624 4.460390 -12.473139 179.997300 -0.000001 -15.683300
2.264881 16.971667 0.974446 -151.959619 -80.990407 163.138993 -10.321629 -0.291467 4.794183 -1.583082 -3.290723 -44.696931 -0.354744 0.848366 30.207968 2.123193 11.371195 -0.810994 1.874000 -0.000000 -31.012000 7.101420 -2.407478 3.349881 20.566894 3.268266 1.000949 4.319895 2.608598 -3.077563 -0.026333 4.663023 -12.920045 179.986300 0.000000 -15.932600
2.122194 16.947139 0.967769 -151.335261 -81.263503 162.439177 -10.300702 -0.282605 4.833210 -2.030154 -3.131296 -44.898373 -0.508944 0.726522 27.716264 1.860777 10.155777 0.755398 1.995500 0.000000 -32.593600 7.116313 -2.463182 3.174948 20.523128 2.711151 1.649940 4.313643 2.594408 -3.021468 -0.029216 4.890067 -13.357394 179.970200 0.000000 -15.979600
1.978493 16.921290 0.961455 -150.649406 -81.547315 161.644081 -10.282444 -0.266234 4.857499 -2.547035 -2.931970 -45.014057 -0.693815 0.603657 25.216231 1.582037 8.841640 2.185471 2.010500 -0.000000 -34.179600 7.135250 -2.522708 2.986646 20.464079 2.092633 2.316318 4.308963 2.571988 -2.927571 -0.027138 5.147593 -13.777044 179.948500 -0.000001 -15.811300
1.833531 16.894157 0.955492 -149.893081 -81.835431 160.751728 -10.263443 -0.247026 4.869445 -3.126613 -2.697324 -45.056809 -0.909178 0.476768 22.733662 1.292796 7.439810 3.422451 1.918900 -0.000000 -35.794700 7.158187 -2.586032 2.787810 20.388016 1.419205 2.996467 4.306221 2.541922 -2.798714 -0.020165 5.436095 -14.170569 179.921100 -0.000001 -15.435399
1.687734 16.865997 0.949490 -149.145215 -82.128682 159.829984 -10.239116 -0.228391 4.867639 -3.777548 -2.430952 -45.018007 -1.155562 0.341949 20.282058 0.998305 5.962233 4.415981 1.728500 0.000000 -37.328501 7.189628 -2.652591 2.572021 20.274193 0.662638 3.702161 4.304638 2.503798 -2.644622 -0.003606 5.782912 -14.519851 179.885600 0.000000 -14.850600
1.540408 16.836871 0.943919 -148.305459 -82.409712 158.808433 -10.208625 -0.216229 4.859386 -4.477661 -2.123315 -44.949551 -1.427972 0.195403 17.880197 0.702754 4.417140 5.159064 1.457600 -0.000001 -38.860600 7.221807 -2.722773 2.360851 20.148012 -0.104714 4.409556 4.305058 2.461705 -2.475346 0.015979 6.142597 -14.826528 179.846000 -0.000000 -14.135600
1.391803 16.807090 0.938429 -147.484539 -82.681411 157.788688 -10.168840 -0.211730 4.841523 -5.244844 -1.769634 -44.840618 -1.724684 0.033506 15.524438 0.409650 2.816777 5.656613 1.126900 0.000000 -40.332100 7.259979 -2.796093 2.148320 19.984359 -0.912155 5.134326 4.305967 2.416288 -2.310356 0.044064 6.546475 -15.070333 179.799800 0.000000 -13.294200
1.241673 16.776898 0.933079 -146.717210 -82.938549 156.813193 -10.119377 -0.216415 4.814349 -6.083668 -1.358340 -44.707098 -2.041006 -0.145943 13.215989 0.121458 1.168677 5.943412 0.757800 0.000000 -41.709300 7.303565 -2.872689 1.941331 19.780190 -1.743551 5.875888 4.306492 2.370059 -2.168750 0.081360 6.990798 -15.240237 179.747400 -0.000000 -12.339501
1.089596 16.746429 0.928254 -145.990634 -83.172258 155.884681 -10.061960 -0.231522 4.779638 -6.990889 -0.878270 -44.578844 -2.370221 -0.343087 10.961117 -0.159848 -0.520092 6.075489 0.368700 -0.000000 -43.051300 7.348030 -2.952595 1.753093 19.548979 -2.553817 6.626185 4.306120 2.326285 -2.065554 0.125433 7.448506 -15.338371 179.691701 0.000000 -11.337500
0.935453 16.715884 0.923986 -145.381739 -83.384348 155.079006 -9.997578 -0.255591 4.735797 -7.973696 -0.329772 -44.456974 -2.705688 -0.556011 8.766898 -0.431500 -2.236134 6.109656 -0.026100 -0.000000 -44.335600 7.395099 -3.035617 1.583766 19.279750 -3.346796 7.393665 4.303346 2.286331 -2.018858 0.179495 7.927833 -15.354294 179.631800 -0.000000 -10.276700
0.778980 16.685438 0.920461 -144.931283 -83.576539 154.440512 -9.928120 -0.286539 4.684096 -9.024859 0.273548 -44.346925 -3.038543 -0.780509 6.651537 -0.689498 -3.955653 6.099154 -0.415500 -0.000000 -45.576100 7.445027 -3.121680 1.434821 18.969262 -4.117899 8.181637 4.296995 2.251419 -2.042705 0.245673 8.426536 -15.281432 179.567601 -0.000000 -9.129200
0.620267 16.655131 0.917834 -144.662360 -83.752862 153.991041 -9.855468 -0.322047 4.628400 -10.121192 0.898956 -44.249400 -3.358048 -1.010481 4.642717 -0.928033 -5.637112 6.080091 -0.789100 0.000000 -46.780500 7.498304 -3.210025 1.304977 18.615320 -4.866080 8.993578 4.285998 2.222008 -2.147480 0.326599 8.942045 -15.114525 179.499200 0.000000 -7.854600
0.458888 16.625018 0.916347 -144.520867 -83.914709 153.688361 -9.782516 -0.359664 4.577160 -11.216189 1.498089 -44.169644 -3.652308 -1.238689 2.777332 -1.140513 -7.221670 6.066550 -1.134800 0.000000 -47.969600 7.552475 -3.300103 1.195906 18.231426 -5.571297 9.824942 4.270168 2.198601 -2.334197 0.421215 9.453132 -14.860046 179.428900 -0.000000 -6.478700
0.295264 16.595170 0.915555 -144.594146 -84.078960 153.605238 -9.709214 -0.394922 4.537189 -12.266926 2.003786 -44.068526 -3.910571 -1.458341 1.082304 -1.318659 -8.625393 6.045410 -1.433700 0.000000 -49.054400 7.616433 -3.391753 1.090427 17.784666 -6.295388 10.692157 4.247589 2.178419 -2.618245 0.541006 10.001215 -14.472720 179.353500 -0.000000 -4.679200
0.129009 16.565584 0.915885 -144.647521 -84.236107 153.529860 -9.640946 -0.428309 4.519701 -13.194636 2.370553 -43.969995 -4.122981 -1.660941 -0.387459 -1.458980 -9.784478 5.985567 -1.669700 0.000000 -50.064700 7.678077 -3.483037 1.000358 17.333834 -6.956384 11.573971 4.220356 2.162395 -2.974583 0.673325 10.509891 -14.003203 179.281900 -0.000000 -2.772400
-0.039618 16.536308 0.916791 -144.687778 -84.394682 153.451573 -9.577955 -0.453249 4.533522 -13.958237 2.559812 -43.844840 -4.284978 -1.839710 -1.595335 -1.558642 -10.638861 5.844682 -1.824000 -0.000000 -50.946800 7.734967 -3.576391 0.894932 16.874300 -7.582809 12.175676 4.206898 2.085965 -2.726547 0.763556 11.005840 -13.767784 179.215800 0.000000 -0.485499
-0.210489 16.507465 0.918117 -144.567924 -84.554264 153.228919 -9.523277 -0.470724 4.576244 -14.524722 2.566911 -43.705852 -4.396375 -1.986788 -2.486166 -1.618839 -11.173041 5.573489 -1.886700 0.000001 -51.641900 7.783551 -3.668578 0.785728 16.436166 -8.136635 12.602919 4.201039 1.972573 -2.102328 0.818583 11.442853 -13.670115 -0.838300 -0.000000 -1.916301
-0.383625 16.479202 0.919557 -144.203789 -84.717888 152.779996 -9.478014 -0.480513 4.640994 -14.888876 2.403891 -43.560742 -4.460533 -2.096027 -3.018460 -1.641521 -11.395091 5.135351 -1.856300 0.000000 -52.120100 7.825353 -3.758435 0.683585 16.029963 -8.609485 13.018745 4.192634 1.853570 -1.451738 0.866508 11.799755 -13.525051 -0.875200 -0.000000 -4.367200
-0.558715 16.451663 0.920404 -143.702949 -84.896610 152.194784 -9.439885 -0.479517 4.722832 -15.064115 2.074339 -43.379341 -4.480238 -2.165783 -3.193546 -1.625505 -11.300569 4.516278 -1.735300 -0.000000 -52.282901 7.868238 -3.847542 0.575656 15.621306 -9.056184 13.431078 4.179759 1.723058 -0.761752 0.914774 12.117731 -13.285095 -0.893200 -0.000001 -7.268201
-0.735821 16.424989 0.920900 -142.887626 -85.078646 151.304180 -9.411264 -0.470597 4.818213 -15.049715 1.603904 -43.187052 -4.457857 -2.194882 -3.009240 -1.572092 -10.916672 3.724429 -1.541100 -0.000000 -52.120601 7.901610 -3.933701 0.475543 15.262154 -9.405519 13.855915 4.162687 1.587833 -0.068722 0.955652 12.337896 -12.979769 -0.886500 -0.000000 -10.067700
-0.914964 16.399323 0.920726 -141.845667 -85.265498 150.188570 -9.390813 -0.453714 4.925716 -14.860976 0.995013 -42.956453 -4.393795 -2.187635 -2.522984 -1.478218 -10.236854 2.803661 -1.292900 -0.000001 -51.574000 7.929455 -4.017179 0.377449 14.934857 -9.682025 14.296629 4.140208 1.445224 0.633151 0.992923 12.483984 -12.587909 -0.855199 0.000000 -12.888400
-1.096345 16.374886 0.919781 -140.664317 -85.454859 148.933623 -9.377412 -0.429184 5.043748 -14.524480 0.260739 -42.671642 -4.289865 -2.149811 -1.806108 -1.342521 -9.270585 1.821673 -1.016600 -0.000000 -50.624000 7.953924 -4.097891 0.280590 14.629397 -9.893931 14.752753 4.111314 1.294527 1.346298 1.028058 12.569465 -12.103587 -0.799900 -0.000000 -15.656700
-1.280146 16.351871 0.917945 -139.499815 -85.645821 147.691198 -9.369396 -0.395893 5.167806 -14.090132 -0.566141 -42.324191 -4.151572 -2.087334 -0.935127 -1.167222 -8.051549 0.864941 -0.739299 -0.000000 -49.285800 7.978469 -4.176267 0.185827 14.328685 -10.053718 15.217974 4.074323 1.134723 2.076272 1.062619 12.610254 -11.517340 -0.721600 0.000000 -18.461800
-1.466826 16.330646 0.915059 -138.560514 -85.838744 146.667930 -9.364999 -0.350586 5.290408 -13.629714 -1.429832 -41.916262 -3.989302 -2.005587 0.017435 -0.960110 -6.642774 0.027866 -0.482500 -0.000000 -47.617900 8.007146 -4.253185 0.097105 14.012369 -10.172630 15.681375 4.027221 0.965761 2.829724 1.097430 12.622569 -10.827854 -0.622200 -0.000000 -21.248700
-1.656766 16.311616 0.910888 -138.105851 -86.036578 146.121004 -9.362808 -0.288661 5.401813 -13.226272 -2.256517 -41.458541 -3.817330 -1.909009 0.987086 -0.734602 -5.128885 -0.597282 -0.256600 0.000001 -45.704900 8.044240 -4.330011 0.020463 13.659374 -10.260779 16.127971 3.967368 0.787860 3.613492 1.132643 12.617770 -10.031992 -0.502500 0.000000 -24.110300
-1.850419 16.295238 0.905085 -138.465762 -86.245276 146.378096 -9.361855 -0.204470 5.492445 -12.963209 -2.968594 -40.962603 -3.651783 -1.801369 1.917296 -0.507866 -3.602048 -0.930737 -0.059099 0.000000 -43.646400 8.095009 -4.408758 -0.038019 13.241992 -10.333422 16.539041 3.891188 0.600938 4.434785 1.168615 12.608279 -9.115746 -0.361300 -0.000000 -27.235299
-2.048299 16.282022 0.897496 -139.885701 -86.466168 147.692179 -9.364588 -0.094713 5.555152 -12.900603 -3.490021 -40.456858 -3.507464 -1.685228 2.772056 -0.299023 -2.158801 -0.918133 0.120500 -0.000000 -41.547800 8.157243 -4.490217 -0.066166 12.766036 -10.369229 16.896569 3.797681 0.409112 5.295189 1.200768 12.576499 -8.117421 -0.203101 -0.000000 -30.286700
-2.250832 16.272465 0.887868 -142.700459 -86.705319 150.404595 -9.374099 0.042527 5.586200 -13.082785 -3.767112 -39.964731 -3.396798 -1.562743 3.528626 -0.124997 -0.883197 -0.535966 0.293900 -0.000000 -39.489300 8.229678 -4.577712 -0.056176 12.226081 -10.365948 17.178396 3.685280 0.213661 6.200486 1.226959 12.514562 -7.041612 -0.028900 -0.000000 -33.296300
-2.457857 16.266830 0.875263 -147.847907 -86.991627 155.439976 -9.392121 0.207072 5.583826 -13.561059 -3.790757 -39.467199 -3.330132 -1.436742 4.160539 0.004090 0.177395 0.214288 0.470400 -0.000000 -37.536300 8.321546 -4.679381 -0.019157 11.540220 -10.406282 17.360481 3.547413 0.007808 7.167559 1.252344 12.474288 -5.799016 0.174399 0.000000 -37.312900
-2.669450 16.265467 0.860164 -155.605981 -87.325121 163.098775 -9.430393 0.381590 5.549491 -14.312458 -3.550661 -39.015361 -3.310254 -1.308514 4.707491 0.077637 0.951809 1.279896 0.642001 -0.000000 -35.717400 8.415501 -4.807622 0.061089 10.784765 -10.421402 17.423814 3.393788 -0.203588 8.195843 1.266073 12.393991 -4.498816 0.391300 0.000000 -41.174999
